<svg width="22" height="27" viewBox="0 0 22 27" fill="none" xmlns="http://www.w3.org/2000/svg">
<path d="M11 26.5C12.4667 26.5 13.6667 25.3 13.6667 23.8333H8.33334C8.33334 25.3 9.53334 26.5 11 26.5ZM19 18.5V11.8333C19 7.74 16.8267 4.31333 13 3.40667V2.5C13 1.39333 12.1067 0.5 11 0.5C9.89334 0.5 9.00001 1.39333 9.00001 2.5V3.40667C5.18668 4.31333 3.00001 7.72667 3.00001 11.8333V18.5L0.333344 21.1667V22.5H21.6667V21.1667L19 18.5ZM16.3333 19.8333H5.66668V11.8333C5.66668 8.52667 7.68001 5.83333 11 5.83333C14.32 5.83333 16.3333 8.52667 16.3333 11.8333V19.8333Z" fill="#64748B"/>
</svg>
